<svg id="visual" viewBox="0 0 900 600" width="900" height="600" xmlns="http://www.w3.org/2000/svg" xmlns:xlink="http://www.w3.org/1999/xlink" version="1.1"><g transform="translate(442.3465903255476 337.5174210824269)"><path d="M203 -253.7C274.3 -227.6 351.1 -183.3 353.9 -126.4C356.6 -69.5 285.3 0 239 57.6C192.6 115.1 171.3 160.7 135.6 192.3C99.9 223.9 50 241.4 -1.9 244C-53.7 246.6 -107.4 234.1 -168.4 210.8C-229.4 187.4 -297.8 153.2 -324.4 98.9C-350.9 44.6 -335.7 -29.8 -317.4 -108.4C-299.1 -187 -277.7 -269.9 -224.3 -301.8C-170.8 -333.8 -85.4 -314.9 -9.8 -301.4C65.8 -287.9 131.7 -279.9 203 -253.7" fill="#fff"></path></g></svg>