<svg id="visual" viewBox="0 0 900 600" width="900" height="600" xmlns="http://www.w3.org/2000/svg" xmlns:xlink="http://www.w3.org/1999/xlink" version="1.1"><g transform="translate(454.264089948657 298.92723699358595)"><path d="M54.6 -98.1C71 -85.2 84.4 -70.9 96.8 -54.3C109.2 -37.7 120.6 -18.8 125.1 2.6C129.6 24 127.1 48 114.8 64.7C102.5 81.5 80.2 91 59.5 101.1C38.7 111.3 19.3 122.2 -2.5 126.5C-24.3 130.8 -48.7 128.6 -67.7 117.5C-86.8 106.3 -100.5 86.1 -113.4 65.1C-126.2 44 -138.1 22 -135.3 1.6C-132.5 -18.8 -115 -37.5 -101.3 -57.1C-87.6 -76.8 -77.8 -97.3 -61.6 -110.2C-45.3 -123.2 -22.7 -128.6 -1.8 -125.6C19.2 -122.5 38.3 -111.1 54.6 -98.1" fill="none" stroke="#000000" stroke-width="2"></path></g></svg>