<svg id="visual" viewBox="0 0 900 600" width="900" height="600" xmlns="http://www.w3.org/2000/svg" xmlns:xlink="http://www.w3.org/1999/xlink" version="1.1"><g transform="translate(451.40904029929794 262.1826743800878)"><path d="M111.5 -118.7C168 -112.5 253.3 -111.3 272.5 -81.6C291.7 -51.9 244.7 6.2 225 75.1C205.4 144 212.9 223.7 179.9 246.6C146.9 269.6 73.5 235.8 9.8 222.3C-53.9 208.8 -107.8 215.7 -164.7 200.5C-221.6 185.3 -281.5 148.1 -279.8 102.8C-278 57.6 -214.6 4.2 -183.2 -49.3C-151.8 -102.9 -152.3 -156.6 -127.1 -172.9C-101.9 -189.2 -50.9 -168.1 -11.7 -152C27.6 -135.9 55.1 -124.9 111.5 -118.7" fill="#fff"></path></g></svg>