<svg width="229" height="222" viewBox="0 0 229 222" fill="none" xmlns="http://www.w3.org/2000/svg">
<path d="M69.7494 211.488L70.6846 209.206L75.448 211.159L76.4583 208.694L72.894 207.233L73.8019 205.018L77.3661 206.478L79.3048 201.748L82.1528 202.915L77.3609 214.608L69.7494 211.488Z" fill="white"/>
<path d="M66.463 201.443C65.9125 202.316 65.2668 202.98 64.5259 203.435C63.7749 203.883 63.0032 204.106 62.2107 204.103C61.4183 204.1 60.6719 203.877 59.9715 203.435C59.3726 203.058 58.9267 202.606 58.6337 202.081C58.3306 201.549 58.1821 201.009 58.1881 200.459L57.4296 201.662L54.826 200.02L60.1838 191.525L62.7873 193.166L62.0288 194.369C62.5322 194.133 63.089 194.038 63.6994 194.082C64.2997 194.12 64.8992 194.328 65.4981 194.706C66.1883 195.141 66.7056 195.715 67.0499 196.429C67.3879 197.153 67.5163 197.951 67.4352 198.822C67.3376 199.696 67.0135 200.57 66.463 201.443ZM60.1084 197.414C59.6988 198.064 59.5582 198.692 59.6868 199.298C59.8052 199.897 60.1232 200.36 60.6409 200.687C61.1585 201.013 61.7185 201.104 62.3207 200.959C62.9064 200.817 63.4041 200.422 63.8138 199.772C64.2235 199.123 64.3723 198.493 64.2603 197.883C64.1317 197.277 63.8086 196.811 63.2909 196.485C62.7733 196.158 62.2184 196.071 61.6263 196.222C61.0241 196.367 60.5181 196.765 60.1084 197.414Z" fill="white"/>
<path d="M45.5682 194.034C45.9758 194.388 46.2087 194.797 46.2668 195.26C46.3079 195.725 46.175 196.134 45.8681 196.488C45.5533 196.85 45.1668 197.039 44.7085 197.054C44.2333 197.07 43.7919 196.902 43.3843 196.547C42.9857 196.201 42.7658 195.795 42.7246 195.331C42.6665 194.867 42.7949 194.454 43.1097 194.091C43.4166 193.738 43.8077 193.553 44.2829 193.537C44.7411 193.522 45.1696 193.687 45.5682 194.034ZM45.0978 192.242L51.6849 184.66L54.0086 186.678L47.4214 194.261L45.0978 192.242Z" fill="white"/>
<path d="M40.3921 176.835L42.3384 175.096L43.3818 176.264C44.1254 177.096 44.5037 177.925 44.5168 178.75C44.5209 179.583 44.0621 180.411 43.1404 181.235L40.1606 183.897L40.9761 184.81L39.0701 186.513L38.2546 185.6L36.4291 187.231L34.3783 184.936L36.2038 183.305L34.8605 181.801L36.7666 180.098L38.1098 181.602L41.1165 178.915C41.3402 178.716 41.4533 178.518 41.4558 178.323C41.4583 178.127 41.3476 177.904 41.1237 177.654L40.3921 176.835Z" fill="white"/>
<path d="M28.3408 164.279C28.5831 164.123 28.8452 163.976 29.1271 163.837L32.8939 169.697C33.3928 169.319 33.6895 168.893 33.784 168.419C33.8619 167.941 33.7613 167.485 33.4823 167.051C33.067 166.405 32.5057 166.131 31.7984 166.229L30.0269 163.473C30.673 163.257 31.3381 163.193 32.0223 163.281C32.7001 163.359 33.3436 163.595 33.9528 163.988C34.5621 164.381 35.0873 164.92 35.5285 165.607C36.0606 166.435 36.3577 167.285 36.4196 168.158C36.4816 169.031 36.3013 169.86 35.8788 170.646C35.4563 171.431 34.8059 172.106 33.9277 172.67C33.0495 173.235 32.1688 173.551 31.2855 173.62C30.3958 173.678 29.5666 173.498 28.7981 173.079C28.0295 172.66 27.3759 172.032 26.8373 171.194C26.3117 170.376 26.0161 169.539 25.9506 168.682C25.885 167.826 26.0566 167.017 26.4654 166.254C26.8678 165.482 27.4929 164.824 28.3408 164.279ZM29.3628 167.366C28.9186 167.652 28.6627 168.03 28.5949 168.502C28.5271 168.973 28.6392 169.436 28.9312 169.891C29.2102 170.325 29.5732 170.612 30.0202 170.753C30.4608 170.883 30.9359 170.834 31.4457 170.607L29.3628 167.366Z" fill="white"/>
<path d="M27.8423 151.136C28.1815 151.944 28.3453 152.721 28.3336 153.468C28.3218 154.215 28.1548 154.871 27.8324 155.436C27.4989 156.005 27.0427 156.438 26.4639 156.733L25.2859 153.928C25.5928 153.76 25.7901 153.502 25.8777 153.152C25.9654 152.803 25.9279 152.435 25.7652 152.048C25.6165 151.694 25.4363 151.451 25.2245 151.318C24.9971 151.179 24.7727 151.157 24.5514 151.25C24.2859 151.361 24.1503 151.581 24.1448 151.908C24.1282 152.241 24.1726 152.749 24.2779 153.434C24.4018 154.163 24.4737 154.783 24.4936 155.296C24.5025 155.812 24.3917 156.308 24.1614 156.782C23.92 157.261 23.484 157.633 22.8533 157.898C22.3223 158.121 21.7806 158.179 21.2283 158.073C20.6603 157.96 20.1305 157.675 19.6391 157.217C19.143 156.749 18.73 156.122 18.4 155.336C17.9121 154.175 17.8164 153.141 18.113 152.236C18.4048 151.319 19.0056 150.611 19.9152 150.112L21.0165 152.734C20.7143 152.913 20.5202 153.164 20.4343 153.486C20.3438 153.798 20.3799 154.147 20.5426 154.534C20.682 154.866 20.8552 155.093 21.0623 155.214C21.2584 155.34 21.467 155.356 21.6883 155.263C21.9538 155.152 22.0949 154.93 22.1115 154.598C22.1235 154.254 22.0704 153.756 21.9522 153.103C21.8411 152.342 21.7835 151.709 21.7793 151.203C21.764 150.702 21.8826 150.21 22.1351 149.726C22.3719 149.236 22.8088 148.851 23.4458 148.571C23.9879 148.343 24.5398 148.293 25.1014 148.422C25.6473 148.544 26.1628 148.842 26.6478 149.315C27.1282 149.777 27.5264 150.384 27.8423 151.136Z" fill="white"/>
<path d="M11.0727 128.98C10.9852 128.278 11.0517 127.647 11.2722 127.087C11.4912 126.516 11.8151 126.058 12.2439 125.714L10.8328 125.89L10.4523 122.836L20.4014 121.596C21.3183 121.482 22.1689 121.564 22.9532 121.841C23.7479 122.104 24.4123 122.584 24.9464 123.279C25.4789 123.963 25.8142 124.858 25.9522 125.966C26.1361 127.442 25.9339 128.683 25.3456 129.687C24.7691 130.69 23.8937 131.331 22.7192 131.611L22.3431 128.592C22.7123 128.449 22.9818 128.186 23.1517 127.802C23.3334 127.416 23.3917 126.962 23.3264 126.438C23.2478 125.807 23.0009 125.33 22.5858 125.006C22.181 124.67 21.5798 124.551 20.7819 124.651L19.3708 124.826C19.8723 125.066 20.3046 125.43 20.6675 125.917C21.0186 126.405 21.2379 127 21.3254 127.703C21.4278 128.525 21.3121 129.295 20.9784 130.014C20.6328 130.734 20.0975 131.339 19.3724 131.828C18.634 132.307 17.7527 132.61 16.7286 132.738C15.7045 132.865 14.7817 132.787 13.9602 132.502C13.1373 132.206 12.4759 131.75 11.976 131.135C11.4762 130.52 11.175 129.802 11.0727 128.98ZM15.8163 125.269C15.0542 125.364 14.4796 125.653 14.0924 126.137C13.7037 126.609 13.5472 127.148 13.6229 127.756C13.6985 128.363 13.9833 128.853 14.4773 129.227C14.9579 129.591 15.5793 129.725 16.3414 129.63C17.1035 129.535 17.6849 129.251 18.0854 128.778C18.4726 128.294 18.6284 127.749 18.5527 127.141C18.4771 126.534 18.193 126.049 17.7005 125.688C17.2065 125.314 16.5784 125.174 15.8163 125.269Z" fill="white"/>
<path d="M7.0268 110.287L20.3413 110.669L20.253 113.746L6.9385 113.364L7.0268 110.287Z" fill="white"/>
<path d="M10.2259 99.773C10.1482 100.307 9.92988 100.724 9.57102 101.024C9.20202 101.31 8.78596 101.419 8.32284 101.351C7.84784 101.282 7.48015 101.059 7.21978 100.682C6.94926 100.291 6.85287 99.8279 6.93062 99.2935C7.00664 98.771 7.22915 98.3669 7.59815 98.081C7.95701 97.7816 8.37393 97.6664 8.84893 97.7355C9.31206 97.8029 9.67888 98.0321 9.9494 98.4231C10.2098 98.8005 10.3019 99.2505 10.2259 99.773ZM11.4793 98.4092L21.4187 99.8554L20.9755 102.901L11.0362 101.455L11.4793 98.4092Z" fill="white"/>
<path d="M24.152 88.3395C23.9044 89.1798 23.54 89.8856 23.0589 90.4569C22.5778 91.0282 22.0338 91.4308 21.4269 91.6648C20.8085 91.8954 20.1817 91.9421 19.5466 91.805L20.4065 88.8871C20.7505 88.9509 21.0668 88.8752 21.3554 88.66C21.644 88.4448 21.8476 88.1358 21.9664 87.7329C22.0749 87.3646 22.089 87.0622 22.0085 86.8259C21.9199 86.5746 21.7605 86.415 21.5303 86.3472C21.2541 86.2657 21.0102 86.3503 20.7988 86.6007C20.5759 86.8478 20.2889 87.2699 19.9377 87.867C19.5731 88.5101 19.2366 89.0364 18.9282 89.446C18.6084 89.8521 18.2093 90.1661 17.7311 90.388C17.2414 90.6065 16.6685 90.619 16.0124 90.4257C15.4598 90.2629 15.0032 89.9657 14.6425 89.5341C14.2737 89.0876 14.0434 88.5319 13.9516 87.8668C13.8633 87.1902 13.9395 86.4433 14.1804 85.6261C14.5366 84.4175 15.1157 83.556 15.9178 83.0418C16.7232 82.516 17.6362 82.3472 18.6566 82.5354L17.8527 85.2634C17.5053 85.211 17.1965 85.2827 16.9262 85.4782C16.6593 85.6623 16.4664 85.9557 16.3477 86.3586C16.2459 86.7039 16.237 86.989 16.3208 87.2139C16.3932 87.4354 16.5445 87.58 16.7747 87.6479C17.0509 87.7293 17.3005 87.6465 17.5234 87.3994C17.7498 87.1408 18.0236 86.7211 18.3449 86.1403C18.7394 85.4809 19.0948 84.9539 19.4113 84.5592C19.7163 84.1612 20.1194 83.8546 20.6206 83.6396C21.1137 83.4096 21.6958 83.3872 22.3668 83.5724C22.9308 83.7387 23.3898 84.0491 23.7437 84.5036C24.0895 84.9433 24.3009 85.4998 24.3777 86.1729C24.4579 86.8346 24.3827 87.5568 24.152 88.3395Z" fill="white"/>
<path d="M29.8204 73.6214C29.4354 74.4083 28.9579 75.043 28.3878 75.5255C27.8177 76.0081 27.2139 76.3139 26.5764 76.4428C25.9281 76.5665 25.3023 76.5075 24.6992 76.2658L26.036 73.5333C26.3645 73.6539 26.689 73.6323 27.0095 73.4686C27.3301 73.3048 27.5827 73.0343 27.7673 72.657C27.9361 72.3121 28.0006 72.0163 27.9609 71.7698C27.9157 71.5072 27.7853 71.3232 27.5697 71.2177C27.311 71.0912 27.0565 71.1336 26.806 71.3451C26.5449 71.5513 26.1911 71.9193 25.7449 72.4491C25.2776 73.022 24.8576 73.4845 24.485 73.8365C24.1016 74.1833 23.6555 74.426 23.1469 74.5646C22.6275 74.6979 22.0606 74.6142 21.4461 74.3136C20.9288 74.0605 20.5284 73.6909 20.2451 73.205C19.9564 72.703 19.8225 72.1165 19.8435 71.4455C19.8698 70.7637 20.0702 70.0401 20.4446 69.2748C20.9984 68.143 21.7137 67.3909 22.5906 67.0183C23.4728 66.635 24.4012 66.6216 25.3756 66.9782L24.1258 69.5328C23.7921 69.423 23.4756 69.4418 23.1764 69.5893C22.8824 69.726 22.6431 69.983 22.4585 70.3603C22.3003 70.6837 22.2437 70.9632 22.2887 71.199C22.3228 71.4294 22.4477 71.5974 22.6633 71.7029C22.922 71.8295 23.182 71.7896 23.4431 71.5834C23.7096 71.3665 24.0499 70.9986 24.464 70.4798C24.9635 69.8959 25.4022 69.4359 25.7804 69.0999C26.1477 68.7586 26.5965 68.524 27.1267 68.396C27.6514 68.2519 28.229 68.3274 28.8595 68.6225C29.3876 68.8809 29.7881 69.2638 30.0608 69.7713C30.328 70.2628 30.4431 70.8468 30.406 71.5233C30.3742 72.189 30.179 72.8884 29.8204 73.6214Z" fill="white"/>
<path d="M36.7253 52.579C36.9582 52.7484 37.1903 52.9394 37.4214 53.1519L33.3248 58.786C33.8577 59.1142 34.3624 59.2363 34.8388 59.1525C35.3126 59.0518 35.7012 58.7928 36.0046 58.3755C36.4563 57.7543 36.5083 57.1319 36.1606 56.5082L38.0872 53.8586C38.5222 54.3826 38.8226 54.9794 38.9886 55.649C39.1616 56.3089 39.1753 56.994 39.0298 57.7042C38.8843 58.4145 38.5716 59.0996 38.0918 59.7595C37.5131 60.5554 36.8281 61.1404 36.0367 61.5146C35.2454 61.8887 34.4072 62.0212 33.5223 61.9119C32.6374 61.8025 31.7728 61.4409 30.9284 60.827C30.084 60.213 29.4699 59.5068 29.086 58.7084C28.7092 57.9003 28.5768 57.0622 28.6887 56.194C28.8007 55.3259 29.1495 54.489 29.7353 53.6834C30.3069 52.8973 30.98 52.3185 31.7546 51.9469C32.5291 51.5754 33.3457 51.4421 34.2041 51.547C35.0696 51.6422 35.91 51.9862 36.7253 52.579ZM34.2177 54.6504C33.7906 54.3399 33.3451 54.2384 32.881 54.3461C32.417 54.4538 32.0261 54.726 31.7086 55.1628C31.4051 55.5801 31.2689 56.0226 31.2998 56.4902C31.3378 56.9481 31.5553 57.3733 31.9524 57.7659L34.2177 54.6504Z" fill="white"/>
<path d="M42.0759 42.0178C41.9409 41.3728 41.9543 40.7491 42.1163 40.1469C42.2697 39.5361 42.5801 38.9977 43.0473 38.5315L45.3484 40.838L44.7494 41.4355C44.2057 41.9779 43.9166 42.5037 43.8821 43.0128C43.839 43.5133 44.1099 44.0567 44.6947 44.6429L47.9873 47.9433L45.8083 50.1172L38.7145 43.0066L40.8936 40.8327L42.0759 42.0178Z" fill="white"/>
<path d="M57.9377 23.2567L65.0487 34.5197L62.446 36.1629L55.335 24.8999L57.9377 23.2567Z" fill="white"/>
<path d="M67.0159 19.0162L69.8559 17.6535L70.1251 22.8749L68.2588 23.7704L67.0159 19.0162Z" fill="white"/>
<path d="M89.2664 18.5433C89.3515 18.8184 89.4229 19.1103 89.4807 19.419L82.8259 21.4776C83.0561 22.0596 83.3871 22.4596 83.8189 22.6778C84.2585 22.8809 84.7249 22.9062 85.2178 22.7538C85.9515 22.5268 86.3659 22.0595 86.461 21.3517L89.5907 20.3836C89.6252 21.0638 89.5085 21.7217 89.2403 22.3573C88.9836 22.9894 88.5844 23.5463 88.0425 24.0279C87.5006 24.5096 86.8399 24.871 86.0604 25.1121C85.1203 25.4029 84.2214 25.4611 83.3636 25.2869C82.5058 25.1126 81.7552 24.7167 81.112 24.0992C80.4688 23.4817 79.993 22.6743 79.6844 21.6769C79.3759 20.6795 79.307 19.7462 79.4778 18.8769C79.66 18.0041 80.0558 17.2536 80.6654 16.6254C81.275 15.9972 82.0555 15.5359 83.0071 15.2416C83.9357 14.9543 84.8213 14.8939 85.6642 15.0602C86.507 15.2266 87.2407 15.6088 87.8653 16.207C88.5015 16.8015 88.9685 17.5803 89.2664 18.5433ZM86.0177 18.7003C85.8616 18.1959 85.5656 17.8479 85.1294 17.6562C84.6933 17.4645 84.2173 17.4485 83.7014 17.6081C83.2085 17.7605 82.8344 18.0333 82.5791 18.4263C82.3353 18.8157 82.2548 19.2865 82.3377 19.8387L86.0177 18.7003ZM84.2665 12.3084L80.6595 15.3271L80.0318 13.298L83.559 10.0213L84.2665 12.3084Z" fill="white"/>
<path d="M96.75 17.052C96.6185 16.0164 96.7119 15.0852 97.0303 14.2585C97.3606 13.4303 97.8743 12.7602 98.5714 12.2483C99.2803 11.7349 100.123 11.4162 101.099 11.2923C102.349 11.1335 103.432 11.3286 104.349 11.8775C105.277 12.4249 105.948 13.2772 106.361 14.4344L103.111 14.8471C102.74 14.12 102.162 13.8063 101.377 13.9061C100.817 13.9772 100.399 14.2541 100.121 14.7369C99.8423 15.2078 99.7543 15.848 99.8571 16.6575C99.9599 17.467 100.206 18.0708 100.595 18.4689C100.983 18.8551 101.457 19.0127 102.016 18.9417C102.802 18.8419 103.283 18.3937 103.46 17.597L106.71 17.1843C106.596 18.3842 106.159 19.3712 105.399 20.1451C104.638 20.9191 103.639 21.3847 102.401 21.5419C101.425 21.6659 100.529 21.5679 99.7142 21.248C98.9114 20.9266 98.2465 20.4062 97.7197 19.6869C97.2048 18.966 96.8815 18.0877 96.75 17.052Z" fill="white"/>
<path d="M117.053 12.327C117.428 11.7847 117.889 11.3647 118.437 11.067C118.985 10.7573 119.589 10.6111 120.249 10.6285L120.163 13.8854L119.318 13.8631C118.55 13.8429 117.97 13.9957 117.577 14.3215C117.185 14.6353 116.978 15.206 116.956 16.0337L116.833 20.6941L113.756 20.6131L114.02 10.5726L117.097 10.6536L117.053 12.327Z" fill="white"/>
<path d="M126.914 16.2579C127.109 15.2443 127.468 14.3907 127.992 13.697C128.528 13.0056 129.165 12.5169 129.904 12.2309C130.643 11.945 131.419 11.88 132.233 12.036C132.928 12.1693 133.508 12.4272 133.972 12.8094C134.448 13.194 134.784 13.6432 134.978 14.1571L135.246 12.7605L138.269 13.3402L136.377 23.2045L133.354 22.6248L133.622 21.2282C133.239 21.6313 132.756 21.9235 132.171 22.1046C131.598 22.288 130.964 22.313 130.269 22.1797C129.468 22.026 128.776 21.6796 128.196 21.1406C127.617 20.5898 127.207 19.894 126.965 19.0534C126.737 18.2033 126.72 17.2714 126.914 16.2579ZM134.3 17.6926C134.445 16.9384 134.347 16.3026 134.006 15.7851C133.677 15.27 133.212 14.9548 132.611 14.8395C132.01 14.7242 131.456 14.8439 130.948 15.1986C130.454 15.5438 130.135 16.0935 129.99 16.8478C129.846 17.602 129.937 18.2426 130.263 18.7696C130.604 19.287 131.075 19.6033 131.676 19.7186C132.277 19.8339 132.825 19.713 133.321 19.3561C133.829 19.0014 134.156 18.4469 134.3 17.6926Z" fill="white"/>
<path d="M153.345 18.1588C154.438 18.5939 155.166 19.2969 155.528 20.2679C155.906 21.2322 155.849 22.333 155.356 23.5705L153.185 29.0222L150.342 27.8902L152.36 22.8232C152.609 22.1988 152.64 21.6495 152.454 21.1751C152.269 20.7008 151.903 20.3549 151.356 20.1373C150.81 19.9198 150.307 19.9195 149.846 20.1363C149.385 20.3532 149.03 20.7738 148.781 21.3981L146.764 26.4652L143.904 25.3265L147.62 15.9951L150.479 17.1338L149.987 18.3713C150.441 18.0742 150.96 17.9063 151.543 17.8675C152.132 17.8175 152.732 17.9146 153.345 18.1588Z" fill="white"/>
<path d="M173.055 37.7525L179.159 33.4155L181.751 35.4186L172.79 41.187L169.784 38.8647L173.106 28.7379L175.712 30.752L173.055 37.7525Z" fill="white"/>
<path d="M190.812 51.5927C190.598 51.7856 190.363 51.9732 190.107 52.1555L185.441 46.983C185.01 47.4366 184.787 47.9051 184.77 48.3886C184.771 48.8729 184.944 49.3066 185.289 49.6898C185.804 50.26 186.402 50.4395 187.084 50.2283L189.278 52.6608C188.676 52.9781 188.03 53.1488 187.34 53.1728C186.659 53.2056 185.986 53.0775 185.321 52.7884C184.656 52.4993 184.05 52.0518 183.504 51.4458C182.845 50.7152 182.414 49.9241 182.211 49.0725C182.009 48.2209 182.053 47.3735 182.342 46.5303C182.632 45.687 183.165 44.9158 183.94 44.2165C184.715 43.5172 185.533 43.0623 186.393 42.8517C187.262 42.65 188.109 42.6937 188.936 42.9826C189.762 43.2715 190.509 43.7858 191.176 44.5254C191.827 45.2471 192.254 46.0253 192.457 46.8599C192.661 47.6946 192.623 48.521 192.343 49.3392C192.071 50.1664 191.56 50.9176 190.812 51.5927ZM189.303 48.7112C189.695 48.3575 189.887 47.9426 189.877 47.4663C189.868 46.99 189.682 46.5513 189.321 46.1504C188.975 45.7672 188.57 45.5425 188.106 45.4761C187.65 45.4187 187.189 45.5436 186.723 45.851L189.303 48.7112Z" fill="white"/>
<path d="M200.039 59.0103C200.698 59.0115 201.306 59.1536 201.862 59.4365C202.427 59.7128 202.89 60.1278 203.25 60.6813L200.517 62.456L200.057 61.7465C199.638 61.1024 199.184 60.7109 198.693 60.5719C198.212 60.4264 197.624 60.5791 196.93 61.0301L193.02 63.5696L191.343 60.9884L199.766 55.5172L201.443 58.0984L200.039 59.0103Z" fill="white"/>
<path d="M199.522 75.7616C199.162 74.9629 198.978 74.1902 198.971 73.4433C198.963 72.6965 199.113 72.0365 199.421 71.4635C199.74 70.8855 200.185 70.4415 200.756 70.1315L202.006 72.9048C201.703 73.0807 201.513 73.3442 201.434 73.6955C201.355 74.0468 201.402 74.414 201.575 74.7969C201.733 75.147 201.919 75.3854 202.134 75.5122C202.365 75.645 202.59 75.6622 202.809 75.5635C203.071 75.4452 203.201 75.2222 203.198 74.8944C203.206 74.5618 203.149 74.0546 203.026 73.3729C202.883 72.6474 202.795 72.0289 202.762 71.5174C202.74 71.0009 202.838 70.5026 203.056 70.0227C203.285 69.5377 203.711 69.1548 204.335 68.8737C204.86 68.637 205.4 68.5648 205.955 68.6569C206.526 68.7551 207.063 69.0265 207.566 69.471C208.074 69.9265 208.503 70.5426 208.853 71.3194C209.37 72.4681 209.493 73.4989 209.22 74.4117C208.952 75.3354 208.369 76.0585 207.473 76.581L206.304 73.9882C206.602 73.8014 206.789 73.5458 206.867 73.2213C206.949 72.9077 206.904 72.5595 206.732 72.1766C206.584 71.8484 206.405 71.6264 206.195 71.5105C205.995 71.3897 205.786 71.3786 205.567 71.4772C205.305 71.5955 205.17 71.821 205.162 72.1537C205.159 72.4973 205.224 72.9941 205.359 73.644C205.49 74.4012 205.564 75.0326 205.581 75.5382C205.609 76.0388 205.504 76.534 205.264 77.0239C205.04 77.5197 204.613 77.9161 203.983 78.213C203.447 78.4546 202.897 78.5184 202.332 78.4044C201.783 78.2963 201.26 78.0121 200.763 77.5517C200.271 77.1022 199.857 76.5055 199.522 75.7616Z" fill="white"/>
<path d="M219.749 95.8399L206.66 98.3109L206.089 95.2863L219.178 92.8154L219.749 95.8399Z" fill="white"/>
<path d="M212.848 105.205C213.879 105.17 214.791 105.331 215.584 105.689C216.377 106.058 216.995 106.571 217.437 107.229C217.88 107.886 218.115 108.628 218.143 109.456C218.167 110.163 218.044 110.786 217.774 111.323C217.505 111.873 217.141 112.3 216.683 112.603L218.104 112.555L218.209 115.631L208.171 115.972L208.066 112.896L209.487 112.848C209.009 112.564 208.617 112.157 208.311 111.627C208.005 111.109 207.841 110.496 207.817 109.789C207.789 108.973 207.973 108.222 208.37 107.537C208.779 106.85 209.367 106.296 210.133 105.874C210.911 105.463 211.816 105.24 212.848 105.205ZM213.085 112.725C213.853 112.699 214.451 112.463 214.88 112.016C215.31 111.581 215.514 111.058 215.493 110.446C215.473 109.835 215.233 109.321 214.775 108.904C214.329 108.499 213.722 108.309 212.954 108.335C212.187 108.361 211.582 108.592 211.141 109.027C210.712 109.474 210.507 110.003 210.528 110.615C210.549 111.227 210.788 111.735 211.246 112.14C211.705 112.556 212.318 112.752 213.085 112.725Z" fill="white"/>
<path d="M215.402 138.815C215.227 139.501 214.934 140.064 214.525 140.504C214.112 140.956 213.643 141.264 213.118 141.427L214.496 141.779L213.734 144.761L204.02 142.278C203.125 142.049 202.363 141.662 201.734 141.118C201.091 140.582 200.648 139.893 200.405 139.05C200.159 138.219 200.174 137.263 200.451 136.182C200.819 134.74 201.461 133.66 202.375 132.94C203.279 132.217 204.328 131.94 205.523 132.11L204.77 135.057C204.374 135.055 204.027 135.201 203.728 135.497C203.418 135.789 203.198 136.191 203.067 136.702C202.91 137.319 202.965 137.853 203.233 138.305C203.487 138.767 204.003 139.097 204.782 139.296L206.16 139.648C205.781 139.242 205.511 138.745 205.352 138.159C205.203 137.577 205.217 136.942 205.392 136.256C205.597 135.454 205.986 134.779 206.56 134.232C207.145 133.688 207.864 133.321 208.718 133.13C209.58 132.955 210.511 132.994 211.511 133.25C212.511 133.506 213.341 133.916 214.002 134.481C214.66 135.058 215.109 135.724 215.349 136.479C215.59 137.234 215.607 138.013 215.402 138.815ZM209.63 140.535C210.375 140.725 211.015 140.666 211.552 140.358C212.086 140.061 212.429 139.616 212.581 139.023C212.732 138.43 212.647 137.869 212.323 137.341C212.009 136.827 211.48 136.475 210.736 136.284C209.992 136.094 209.347 136.146 208.801 136.44C208.264 136.749 207.919 137.199 207.768 137.792C207.616 138.385 207.703 138.94 208.03 139.457C208.353 139.986 208.886 140.345 209.63 140.535Z" fill="white"/>
<path d="M206.248 151.249C207.182 151.689 207.92 152.248 208.463 152.927C209 153.618 209.315 154.356 209.409 155.143C209.503 155.93 209.374 156.698 209.022 157.447C208.72 158.088 208.327 158.586 207.842 158.941C207.351 159.307 206.833 159.521 206.287 159.582L207.573 160.188L206.263 162.973L197.175 158.697L198.485 155.912L199.772 156.517C199.476 156.047 199.313 155.506 199.282 154.894C199.246 154.294 199.379 153.674 199.68 153.033C200.028 152.295 200.534 151.711 201.2 151.281C201.877 150.857 202.653 150.632 203.527 150.606C204.408 150.595 205.315 150.81 206.248 151.249ZM203.029 158.05C203.724 158.377 204.364 158.439 204.95 158.237C205.531 158.046 205.951 157.674 206.212 157.12C206.472 156.566 206.494 155.999 206.276 155.42C206.064 154.856 205.61 154.41 204.915 154.083C204.22 153.756 203.577 153.686 202.986 153.872C202.4 154.074 201.977 154.451 201.716 155.005C201.456 155.559 201.437 156.12 201.66 156.69C201.878 157.269 202.334 157.723 203.029 158.05Z" fill="white"/>
<path d="M195.539 179.393L187.418 173.482L189.229 170.994L190.335 171.799C190.16 171.285 190.12 170.729 190.214 170.13C190.312 169.548 190.551 168.995 190.932 168.471C191.384 167.85 191.919 167.401 192.537 167.123C193.164 166.852 193.835 166.777 194.55 166.896C195.264 167.016 195.976 167.333 196.684 167.849L201.428 171.302L199.627 173.776L195.218 170.566C194.675 170.171 194.15 170.004 193.645 170.067C193.139 170.129 192.713 170.398 192.367 170.873C192.014 171.359 191.886 171.851 191.981 172.352C192.077 172.852 192.397 173.3 192.94 173.695L197.35 176.905L195.539 179.393Z" fill="white"/>
<path d="M186.119 182.627C186.841 183.382 187.319 184.186 187.554 185.04C187.781 185.903 187.766 186.747 187.509 187.573C187.244 188.407 186.756 189.164 186.044 189.844C185.133 190.714 184.146 191.201 183.083 191.304C182.011 191.415 180.965 191.129 179.945 190.443L182.314 188.18C183.044 188.545 183.695 188.453 184.268 187.906C184.676 187.517 184.848 187.045 184.784 186.492C184.728 185.948 184.419 185.38 183.855 184.79C183.291 184.2 182.735 183.861 182.185 183.772C181.644 183.692 181.169 183.847 180.761 184.236C180.189 184.783 180.068 185.43 180.399 186.176L178.03 188.439C177.409 187.406 177.174 186.353 177.326 185.278C177.477 184.204 178.004 183.236 178.907 182.374C179.618 181.694 180.397 181.24 181.242 181.013C182.079 180.795 182.923 180.818 183.774 181.084C184.616 181.358 185.398 181.872 186.119 182.627Z" fill="white"/>
<path d="M170.854 201.816C169.892 202.451 168.91 202.64 167.906 202.382C166.908 202.135 166.043 201.456 165.308 200.344L162.075 195.448L164.628 193.762L167.634 198.313C168.004 198.873 168.437 199.213 168.932 199.332C169.428 199.45 169.921 199.347 170.411 199.023C170.902 198.699 171.19 198.286 171.275 197.784C171.361 197.282 171.218 196.75 170.848 196.19L167.842 191.639L170.411 189.942L177.751 201.057L175.183 202.753L172.634 198.893C172.618 199.436 172.458 199.966 172.152 200.484C171.847 201.002 171.414 201.446 170.854 201.816Z" fill="white"/>
<path d="M148.484 207.622C148.372 207.356 148.272 207.073 148.183 206.771L154.601 204.062C154.314 203.506 153.945 203.141 153.494 202.967C153.036 202.808 152.569 202.829 152.094 203.03C151.386 203.329 151.021 203.835 150.996 204.548L147.978 205.823C147.876 205.149 147.927 204.483 148.131 203.824C148.323 203.169 148.665 202.576 149.157 202.043C149.648 201.509 150.27 201.084 151.021 200.767C151.928 200.384 152.817 200.237 153.687 200.325C154.558 200.413 155.345 200.733 156.046 201.283C156.747 201.834 157.301 202.59 157.707 203.552C158.113 204.514 158.274 205.435 158.191 206.317C158.096 207.204 157.777 207.99 157.233 208.676C156.688 209.361 155.958 209.898 155.04 210.285C154.145 210.663 153.269 210.811 152.414 210.73C151.559 210.648 150.791 210.34 150.11 209.807C149.418 209.279 148.876 208.55 148.484 207.622ZM151.701 207.143C151.906 207.629 152.235 207.946 152.688 208.093C153.141 208.241 153.617 208.21 154.114 208C154.589 207.799 154.935 207.49 155.15 207.074C155.353 206.662 155.387 206.186 155.249 205.644L151.701 207.143Z" fill="white"/>
</svg>
